<?xml version="1.0" encoding="UTF-8"?>
<svg width="92px" height="93px" viewBox="0 0 92 93" version="1.1" xmlns="http://www.w3.org/2000/svg" xmlns:xlink="http://www.w3.org/1999/xlink">
    <!-- Generator: Sketch 60 (88103) - https://sketch.com -->
    <title>D KEY - PRESS</title>
    <desc>Created with Sketch.</desc>
    <defs>
        <path d="M11,9 L75,9 C76.1045695,9 77,9.8954305 77,11 L77,75 C77,76.1045695 76.1045695,77 75,77 L11,77 C9.8954305,77 9,76.1045695 9,75 L9,11 C9,9.8954305 9.8954305,9 11,9 Z" id="path-1"></path>
        <filter x="-13.2%" y="-10.3%" width="126.5%" height="130.9%" filterUnits="objectBoundingBox" id="filter-2">
            <feMorphology radius="3.5" operator="dilate" in="SourceAlpha" result="shadowSpreadOuter1"></feMorphology>
            <feOffset dx="0" dy="5" in="shadowSpreadOuter1" result="shadowOffsetOuter1"></feOffset>
            <feGaussianBlur stdDeviation="1" in="shadowOffsetOuter1" result="shadowBlurOuter1"></feGaussianBlur>
            <feComposite in="shadowBlurOuter1" in2="SourceAlpha" operator="out" result="shadowBlurOuter1"></feComposite>
            <feColorMatrix values="0 0 0 0 0   0 0 0 0 0   0 0 0 0 0  0 0 0 0.129397946 0" type="matrix" in="shadowBlurOuter1"></feColorMatrix>
        </filter>
        <filter x="-22.8%" y="-19.9%" width="145.6%" height="150.0%" filterUnits="objectBoundingBox" id="filter-3">
            <feGaussianBlur stdDeviation="5.5" in="SourceAlpha" result="shadowBlurInner1"></feGaussianBlur>
            <feOffset dx="0" dy="9" in="shadowBlurInner1" result="shadowOffsetInner1"></feOffset>
            <feComposite in="shadowOffsetInner1" in2="SourceAlpha" operator="arithmetic" k2="-1" k3="1" result="shadowInnerInner1"></feComposite>
            <feColorMatrix values="0 0 0 0 0.0705882353   0 0 0 0 0.0705882353   0 0 0 0 0.0705882353  0 0 0 0.402316434 0" type="matrix" in="shadowInnerInner1"></feColorMatrix>
        </filter>
    </defs>
    <g id="Page-1" stroke="none" stroke-width="1" fill="none" fill-rule="evenodd">
        <g id="Start-State-Copy-5" transform="translate(-500.000000, -704.000000)">
            <g id="D-KEY---PRESS" transform="translate(503.500000, 708.000000)">
                <path d="M11,-1.75 L74,-1.75 C81.0416306,-1.75 86.75,3.95836944 86.75,11 L86.75,74 C86.75,81.0416306 81.0416306,86.75 74,86.75 L11,86.75 C3.95836944,86.75 -1.75,81.0416306 -1.75,74 L-1.75,11 C-1.75,3.95836944 3.95836944,-1.75 11,-1.75 Z" id="d-rect-outer" stroke="#FAFAFA" stroke-width="3.5"></path>
                <g id="d-rect-inner">
                    <use fill="black" fill-opacity="1" filter="url(#filter-2)" xlink:href="#path-1"></use>
                    <use fill="#FF1EAE" fill-rule="evenodd" xlink:href="#path-1"></use>
                    <use fill="black" fill-opacity="1" filter="url(#filter-3)" xlink:href="#path-1"></use>
                    <path stroke="#FF1EAE" stroke-width="3.5" d="M11,7.25 L75,7.25 C77.0710678,7.25 78.75,8.92893219 78.75,11 L78.75,75 C78.75,77.0710678 77.0710678,78.75 75,78.75 L11,78.75 C8.92893219,78.75 7.25,77.0710678 7.25,75 L7.25,11 C7.25,8.92893219 8.92893219,7.25 11,7.25 Z"></path>
                </g>
                <path d="M54.375,63.125 L54.375,57.25 L60.25,57.25 L60.25,27.875 L54.375,27.875 L54.375,22 L25,22 L25,63.125 L54.375,63.125 Z M48.5,57.25 L36.75,57.25 L36.75,27.875 L48.5,27.875 L48.5,57.25 Z" id="d-dark" fill="#1C1C19" fill-rule="nonzero"></path>
            </g>
        </g>
    </g>
</svg>