<svg xmlns="http://www.w3.org/2000/svg" xmlns:xlink="http://www.w3.org/1999/xlink" version="1.1" x="0px" y="0px" viewBox="0 0 64 80" style="enable-background:new 0 0 64 64;" xml:space="preserve"><path d="M59,35h-1.178C57.928,34.005,58,33.002,58,32C58,17.112,46.336,5,32,5C18.765,5,7.576,15.503,6.159,29.066  C3.248,29.477,1,31.978,1,35c0,2.206,1.794,4,4,4h1.288C6.101,39.975,6,40.978,6,42c0,6.617,4.038,12,9,12  c0.569,0,1.124-0.079,1.664-0.214C21.138,57.189,26.425,59,32,59c9.532,0,18.196-5.354,22.777-14H57c3.309,0,6-2.691,6-6  C63,36.794,61.206,35,59,35z M55.811,35H41.243c-2.469,0-4.79-0.961-6.536-2.707c-1.975-1.975-4.557-3.111-7.323-3.262L29.414,27  h5.172l5.707,5.707C40.48,32.895,40.735,33,41,33h6c0.265,0,0.52-0.105,0.707-0.293l6-6c0.391-0.391,0.391-1.023,0-1.414L48.414,20  l2.867-2.867C54.244,21.291,56,26.435,56,32C56,33.003,55.925,34.006,55.811,35z M10.293,26.707L12.586,29H8.174  c0.508-4.411,2.13-8.464,4.556-11.856L15.586,20l-5.293,5.293C9.902,25.684,9.902,26.316,10.293,26.707z M15.414,29l-3-3l5-5h5.172  l5,5l-3,3H15.414z M29.414,15h5.172l5,5l-5,5h-5.172l-5-5L29.414,15z M46.586,21l5,5l-5,5h-5.172l-5-5l5-5H46.586z M50.043,15.543  L46.586,19h-5.172l-5-5l4.996-4.996C44.743,10.49,47.686,12.742,50.043,15.543z M39.374,8.212L34.586,13h-5.172l-4.777-4.777  C26.966,7.433,29.44,7,32,7C34.572,7,37.049,7.428,39.374,8.212z M22.607,9.021L27.586,14l-5,5h-5.172l-3.445-3.445  C16.334,12.753,19.285,10.508,22.607,9.021z M8,42c0-1.028,0.114-2.033,0.329-3h2.033C10.13,39.946,10,40.96,10,42  c0,4.486,2.196,8,5,8s5-3.514,5-8c0-1.042-0.131-2.054-0.365-3h2.036C21.886,39.967,22,40.973,22,42c0,5.514-3.14,10-7,10  S8,47.514,8,42z M17.566,39C17.846,39.915,18,40.935,18,42c0,3.536-1.581,6-3,6s-3-2.464-3-6c0-1.064,0.155-2.084,0.435-3H17.566z   M24,42c0-1.004-0.098-1.989-0.279-2.949c1.428,0.147,2.783,0.625,3.982,1.388C26.615,41.7,26,43.305,26,45  c0,1.263,0.341,2.447,0.93,3.471c-0.63,2.563-2.011,4.902-3.951,6.692c-1.455-0.616-2.854-1.382-4.183-2.298  C21.864,50.952,24,46.807,24,42z M38,45c0,2.757-2.243,5-5,5s-5-2.243-5-5c0-1.236,0.458-2.407,1.267-3.316  c0.008,0.008,0.017,0.015,0.026,0.023C31.417,43.83,34.24,45,37.243,45H38z M29.563,56.388l-0.487,0.41  c-1.371-0.172-2.714-0.464-4.022-0.875c1.521-1.602,2.685-3.517,3.409-5.602C29.687,51.365,31.27,52,33,52  c0.074,0,0.145-0.009,0.218-0.011C32.271,53.655,31.03,55.154,29.563,56.388z M31.858,56.994c1.619-1.587,2.937-3.477,3.867-5.547  C38.235,50.383,40,47.893,40,45h2.945c-0.272,4.411-2.303,8.52-5.71,11.389l-0.01,0.009C35.531,56.789,33.783,57,32,57  C31.952,57,31.906,56.994,31.858,56.994z M41.242,55.073c2.217-2.886,3.501-6.388,3.703-10.073h7.557  C49.823,49.586,45.862,53.069,41.242,55.073z M57,43H37.243c-2.469,0-4.79-0.961-6.536-2.707C28.583,38.17,25.76,37,22.757,37H5  c-1.103,0-2-0.897-2-2c0-2.206,1.794-4,4-4h19.757c2.469,0,4.79,0.961,6.536,2.707C35.417,35.83,38.24,37,41.243,37H59  c1.103,0,2,0.897,2,2C61,41.206,59.206,43,57,43z"/><text x="0" y="79" fill="#000000" font-size="5px" font-weight="bold" font-family="'Helvetica Neue', Helvetica, Arial-Unicode, Arial, Sans-serif">Created by Template</text><text x="0" y="84" fill="#000000" font-size="5px" font-weight="bold" font-family="'Helvetica Neue', Helvetica, Arial-Unicode, Arial, Sans-serif">from the Noun Project</text></svg>